<svg width="142" height="88" viewBox="0 0 142 88" fill="none" xmlns="http://www.w3.org/2000/svg">
<path d="M20.5075 1C10.4793 9.87467 1.00861 18.1308 1.00002 25M19 84L7.11945 64.1899M1.00002 25C0.9861 36.1357 8.19396 43.6524 10.9479 46.1176C11.5655 46.6704 11.8505 47.5267 11.6241 48.3241L7.11945 64.1899M1.00002 25L137.887 1.53373C139.333 1.28572 140.545 2.62875 140.151 4.04257L129.337 42.7915C129.131 43.5305 128.52 44.0864 127.765 44.2223L80.104 52.8013C79.4182 52.9247 78.7177 52.6824 78.2548 52.1617L72.4781 45.6629C71.6885 44.7745 70.3029 44.7668 69.5034 45.6463L61.4639 54.4898C61.1633 54.8204 60.7607 55.0408 60.3203 55.1159L7.11945 64.1899" stroke="white" stroke-width="2"/>
<path d="M24.8872 87.1573C23.6998 87.3485 22.5898 87.282 21.5572 86.958C20.5391 86.6316 19.6597 86.0601 18.9192 85.2434L20.6315 83.0069C21.2003 83.4947 21.8469 83.866 22.5712 84.1208C23.3101 84.3733 23.9691 84.4529 24.5483 84.3596C25.1565 84.2618 25.6206 84.0533 25.9406 83.7344C26.2607 83.4155 26.3869 83.0461 26.3193 82.6262C26.2657 82.2931 26.1658 82.0418 26.0197 81.8722C25.888 81.7003 25.6321 81.5409 25.252 81.3941C24.884 81.2305 24.2535 81.0052 23.3605 80.7181C22.1714 80.345 21.2283 79.9769 20.531 79.6137C19.8338 79.2506 19.2816 78.8195 18.8745 78.3205C18.4795 77.8048 18.2202 77.1631 18.0967 76.3957C17.9685 75.5993 18.0715 74.8548 18.4057 74.1622C18.7399 73.4696 19.2712 72.8939 19.9995 72.435C20.74 71.9593 21.6243 71.6387 22.6524 71.4732C23.7963 71.289 24.8292 71.3382 25.7512 71.6206C26.6876 71.9007 27.4191 72.3846 27.9457 73.0723L26.0177 75.0762C25.173 74.3505 24.2583 74.0669 23.2736 74.2254C22.6654 74.3233 22.2135 74.5149 21.9177 74.8002C21.6341 75.0687 21.525 75.4056 21.5902 75.8111C21.6322 76.0717 21.7647 76.2955 21.9879 76.4824C22.2112 76.6693 22.5766 76.863 23.0842 77.0636C23.604 77.2473 24.3695 77.4806 25.3807 77.7635C26.3605 78.0366 27.146 78.3484 27.7372 78.6989C28.3261 79.035 28.7735 79.4606 29.0792 79.9759C29.3972 80.4744 29.6179 81.1073 29.7414 81.8748C29.8836 82.7581 29.7766 83.5701 29.4204 84.3108C29.0764 85.0346 28.5136 85.6452 27.7321 86.1424C26.9505 86.6395 26.0022 86.9779 24.8872 87.1573ZM30.7807 70.3877L34.2777 69.8248L36.725 85.0291L33.228 85.592L30.7807 70.3877ZM37.9703 69.2304L43.5959 68.3249C47.8097 67.6467 50.3093 69.7475 51.0948 74.6273C51.4001 76.5243 51.4059 78.0831 51.1122 79.304C50.833 80.5225 50.2296 81.4813 49.3023 82.1802C48.3894 82.8768 47.1075 83.3579 45.4568 83.6236L40.4176 84.4347L37.9703 69.2304ZM45.3351 80.791C46.1025 80.6674 46.6839 80.403 47.0792 79.9977C47.4745 79.5924 47.714 79.0042 47.7979 78.2331C47.8817 77.462 47.8223 76.4465 47.6195 75.1867C47.3561 73.5504 46.9441 72.4209 46.3833 71.7981C45.837 71.173 45.0353 70.9455 43.9783 71.1156L41.9148 71.4478L43.4671 81.0916L45.3351 80.791ZM52.4891 66.8935L62.8932 65.2188L63.3407 67.9991L56.4336 69.1108L56.9265 72.1734L63.0951 71.1805L63.5427 73.9607L57.3741 74.9536L57.9859 78.7547L64.893 77.6429L65.3405 80.4231L54.9364 82.0978L52.4891 66.8935Z" fill="white"/>
<path d="M93.2832 76.2269L88.4732 70.2939L87.0123 72.8465L87.7011 77.1254L84.2041 77.6883L81.7568 62.484L85.2538 61.9211L86.2886 68.3504L89.9019 61.173L94.0071 60.5122L90.2924 67.0597L97.1712 75.6011L93.2832 76.2269ZM97.5009 59.9498L100.998 59.387L103.445 74.5913L99.9481 75.1541L97.5009 59.9498ZM113.841 73.1408C112.393 73.3739 111.075 73.2592 109.886 72.7969C108.697 72.3346 107.712 71.5647 106.929 70.4874C106.159 69.3932 105.647 68.057 105.393 66.4786C105.139 64.9003 105.207 63.4781 105.597 62.2119C106 60.929 106.693 59.8815 107.676 59.0696C108.66 58.2577 109.876 57.7351 111.324 57.5021C112.598 57.297 113.738 57.366 114.744 57.7092C115.748 58.0378 116.538 58.6089 117.114 59.4222L115.392 61.4598C114.455 60.4371 113.263 60.0422 111.815 60.2753C110.584 60.4734 109.719 61.0509 109.219 62.0078C108.732 62.9479 108.622 64.2505 108.89 65.9158C109.156 67.5665 109.668 68.769 110.429 69.5231C111.189 70.2772 112.17 70.5575 113.372 70.3641C114.892 70.1193 115.922 69.3667 116.462 68.1062L118.737 69.5005C118.444 70.4537 117.875 71.2511 117.027 71.8926C116.177 72.5196 115.115 72.9357 113.841 73.1408ZM130.788 70.1901L125.978 64.2571L124.517 66.8097L125.206 71.0886L121.709 71.6515L119.262 56.4472L122.759 55.8843L123.794 62.3136L127.407 55.1361L131.512 54.4754L127.797 61.0229L134.676 69.5643L130.788 70.1901Z" fill="white"/>
<path d="M52.8176 48.7933L21.6081 53.8372C21.0548 53.9266 20.536 53.5438 20.4583 52.9887L19.1174 43.416C16.8333 28.68 49.7212 22.4215 52.181 38.291L53.6461 47.6515C53.7312 48.1952 53.3609 48.7055 52.8176 48.7933Z" fill="white" stroke="white"/>
<path d="M118.91 36.9193L87.7009 41.9632C87.1476 42.0526 86.6288 41.6698 86.551 41.1147L85.2102 31.5419C82.9261 16.8059 115.814 10.5474 118.274 26.417L119.739 35.7775C119.824 36.3212 119.454 36.8315 118.91 36.9193Z" fill="white" stroke="white"/>
</svg>
